<?xml version="1.0" encoding="UTF-8" standalone="no"?>
<!-- Created with Inkscape (http://www.inkscape.org/) -->

<svg
   xmlns:dc="http://purl.org/dc/elements/1.1/"
   xmlns:cc="http://creativecommons.org/ns#"
   xmlns:rdf="http://www.w3.org/1999/02/22-rdf-syntax-ns#"
   xmlns:svg="http://www.w3.org/2000/svg"
   xmlns="http://www.w3.org/2000/svg"
   xmlns:sodipodi="http://sodipodi.sourceforge.net/DTD/sodipodi-0.dtd"
   xmlns:inkscape="http://www.inkscape.org/namespaces/inkscape"
   width="256"
   height="256"
   id="svg2"
   version="1.1"
   inkscape:version="0.48.4 r9939"
   sodipodi:docname="GooeyTexture.svg"
   inkscape:export-filename="/home/flo/terasology/meta/GooeysQuests/gooey/GooeyTexture.png"
   inkscape:export-xdpi="90"
   inkscape:export-ydpi="90">
  <defs
     id="defs4">
    <filter
       inkscape:collect="always"
       id="filter4151"
       x="-0.27749043"
       width="1.5549809"
       y="-0.58274399"
       height="2.165488">
      <feGaussianBlur
         inkscape:collect="always"
         stdDeviation="2.1410822"
         id="feGaussianBlur4153" />
    </filter>
    <filter
       color-interpolation-filters="sRGB"
       inkscape:collect="always"
       id="filter4151-1"
       x="-0.27749044"
       width="1.5549809"
       y="-0.582744"
       height="2.165488">
      <feGaussianBlur
         inkscape:collect="always"
         stdDeviation="2.1410822"
         id="feGaussianBlur4153-3" />
    </filter>
    <filter
       color-interpolation-filters="sRGB"
       inkscape:collect="always"
       id="filter4151-1-2"
       x="-0.27749044"
       width="1.5549809"
       y="-0.582744"
       height="2.165488">
      <feGaussianBlur
         inkscape:collect="always"
         stdDeviation="2.1410822"
         id="feGaussianBlur4153-3-6" />
    </filter>
    <filter
       color-interpolation-filters="sRGB"
       inkscape:collect="always"
       id="filter4151-1-2-2"
       x="-0.27749044"
       width="1.5549809"
       y="-0.582744"
       height="2.165488">
      <feGaussianBlur
         inkscape:collect="always"
         stdDeviation="2.1410822"
         id="feGaussianBlur4153-3-6-2" />
    </filter>
  </defs>
  <sodipodi:namedview
     id="base"
     pagecolor="#ffffff"
     bordercolor="#666666"
     borderopacity="1.0"
     inkscape:pageopacity="0.0"
     inkscape:pageshadow="2"
     inkscape:zoom="3.959798"
     inkscape:cx="172.33743"
     inkscape:cy="122.64195"
     inkscape:document-units="px"
     inkscape:current-layer="layer1"
     showgrid="false"
     fit-margin-top="0"
     fit-margin-left="0"
     fit-margin-right="0"
     fit-margin-bottom="0"
     inkscape:window-width="1364"
     inkscape:window-height="810"
     inkscape:window-x="401"
     inkscape:window-y="287"
     inkscape:window-maximized="0" />
  <metadata
     id="metadata7">
    <rdf:RDF>
      <cc:Work
         rdf:about="">
        <dc:format>image/svg+xml</dc:format>
        <dc:type
           rdf:resource="http://purl.org/dc/dcmitype/StillImage" />
        <dc:title></dc:title>
      </cc:Work>
    </rdf:RDF>
  </metadata>
  <g
     inkscape:groupmode="layer"
     id="layer2"
     inkscape:label="background"
     sodipodi:insensitive="true">
    <rect
       transform="translate(-9.142848,-10.07646)"
       style="fill:#ffffff;fill-opacity:1;stroke:none"
       id="rect3955"
       width="256"
       height="256"
       x="9.142848"
       y="10.07646" />
  </g>
  <g
     inkscape:label="Layer 1"
     inkscape:groupmode="layer"
     id="layer1"
     transform="translate(-9.142848,-10.07646)">
    <path
       style="fill:#000000;fill-opacity:1;fill-rule:evenodd;stroke:none"
       d="m 86.388384,235.71039 c -0.526543,2.05439 -0.8125,4.21121 -0.8125,6.4375 0,13.80712 10.779743,25 24.093746,25 13.31401,0 24.125,-11.19288 24.125,-25 0,-2.22667 -0.31703,-4.3828 -0.84375,-6.4375 l -46.562496,0 z"
       id="path3104"
       inkscape:connector-curvature="0" />
    <path
       inkscape:connector-curvature="0"
       style="fill:#000000;fill-opacity:1;fill-rule:evenodd;stroke:none"
       d="m 141.20312,237.14343 c -0.52654,2.05439 -0.8125,4.21121 -0.8125,6.4375 0,13.80712 10.77974,25 24.09375,25 13.31401,0 24.125,-11.19288 24.125,-25 0,-2.22667 -0.31703,-4.3828 -0.84375,-6.4375 l -46.5625,0 z"
       id="path3104-1" />
    <rect
       style="fill:#000000;fill-opacity:1;stroke:none"
       id="rect3895"
       width="100.71428"
       height="5.7142854"
       x="3.2641523"
       y="238.84029"
       transform="matrix(0.99973767,0.02290388,-0.02290388,0.99973767,0,0)" />
    <rect
       style="fill:#000000;fill-opacity:1;stroke:none"
       id="rect3895-8"
       width="100.71428"
       height="5.7142854"
       x="-274.58331"
       y="245.56297"
       transform="matrix(-0.99973767,0.02290388,0.02290388,0.99973767,0,0)" />
    <rect
       style="fill:#000000;fill-opacity:1;stroke:none"
       id="rect3895-8-1"
       width="12.7977"
       height="5.71281"
       x="-185.32619"
       y="246.86052"
       transform="matrix(-0.99991068,0.01336533,-0.16425994,0.98641709,0,0)"
       inkscape:transform-center-x="-3.2142857"
       inkscape:transform-center-y="-6.4285714" />
    <rect
       style="fill:#ffffff;fill-opacity:1;stroke:none"
       id="rect3933"
       width="101.07143"
       height="45.714287"
       x="153.42856"
       y="141.79076" />
    <rect
       style="fill:#484183;fill-opacity:1;stroke:none"
       id="rect3935"
       width="263.21432"
       height="92.142868"
       x="5.9285626"
       y="108.57645" />
    <rect
       style="fill:#484183;fill-opacity:1;stroke:none"
       id="rect3935-8"
       width="260.00003"
       height="97.500008"
       x="7.4464021"
       y="6.5688391" />
    <path
       style="fill:#000000;fill-opacity:1;stroke:none"
       d="m 122.32404,81.737943 c 7.93001,0 15.86002,0 23.79003,0 -4.28968,-4.46323 -16.73475,-2.711003 -23.79003,0 z"
       id="path3959"
       inkscape:connector-curvature="0"
       sodipodi:nodetypes="ccc" />
    <path
       style="fill:#7aadd5;fill-opacity:1;stroke:none"
       d="m 115.63078,70.823181 c -0.48882,1.16525 -2.81283,2.09198 -5.19082,2.069912 -2.37799,-0.02207 -3.90946,-0.984579 -3.42064,-2.14983 0.48882,-1.165249 2.81283,-2.091981 5.19082,-2.069913 2.37799,0.02207 3.90946,0.984579 3.42064,2.149831 z"
       id="path3966"
       inkscape:connector-curvature="0"
       inkscape:transform-center-x="2.3214286"
       inkscape:transform-center-y="-2.5892857" />
    <path
       style="fill:#7aadd5;fill-opacity:1;stroke:none"
       d="m 116.24963,65.572501 c -0.40906,0.656721 -1.77709,0.898616 -3.05557,0.54029 -1.27848,-0.358327 -1.98328,-1.181182 -1.57421,-1.837903 0.40906,-0.656719 1.77709,-0.898615 3.05557,-0.54029 1.27848,0.358327 1.98328,1.181183 1.57421,1.837903 z"
       id="path3966-7"
       inkscape:connector-curvature="0"
       inkscape:transform-center-x="0.92702412"
       inkscape:transform-center-y="-1.9530203" />
    <path
       style="fill:#7aadd5;fill-opacity:1;stroke:none"
       d="m 104.69729,68.177314 c 0.0772,0.769842 -0.85827,1.796925 -2.08944,2.294055 -1.23117,0.497129 -2.29181,0.276056 -2.36901,-0.493787 -0.0772,-0.76984 0.85827,-1.796923 2.08944,-2.294055 1.23116,-0.497129 2.2918,-0.276054 2.36901,0.493787 z"
       id="path3966-7-4"
       inkscape:connector-curvature="0"
       inkscape:transform-center-x="1.9268706"
       inkscape:transform-center-y="-0.98022097" />
    <path
       style="fill:#7aadd5;fill-opacity:1;stroke:none"
       d="m 168.67342,90.275095 c -0.40906,0.840338 -1.77709,1.149865 -3.05557,0.691353 -1.27848,-0.458514 -1.98328,-1.511435 -1.57421,-2.351772 0.40906,-0.840335 1.77709,-1.149864 3.05557,-0.691353 1.27848,0.458514 1.98328,1.511437 1.57421,2.351772 z"
       id="path3966-7-5"
       inkscape:connector-curvature="0"
       inkscape:transform-center-x="0.92702412"
       inkscape:transform-center-y="-2.4990758" />
    <path
       style="fill:#7aadd5;fill-opacity:1;stroke:none"
       d="m 166.07672,83.839708 c -0.42858,0.680675 -2.03645,1.17424 -3.59126,1.102399 -1.55484,-0.07184 -2.46784,-0.681868 -2.03926,-1.362547 0.42859,-0.680678 2.03644,-1.174245 3.59129,-1.102405 1.55481,0.07184 2.46781,0.68187 2.03923,1.362545 z"
       id="path3966-7-4-8"
       inkscape:connector-curvature="0"
       inkscape:transform-center-x="1.2786583"
       inkscape:transform-center-y="-1.5966678" />
    <path
       style="fill:#7aadd5;fill-opacity:1;stroke:none"
       d="m 163.51137,23.555038 c -0.40906,0.840338 -1.77709,1.149865 -3.05557,0.691353 -1.27848,-0.458514 -1.98328,-1.511435 -1.57421,-2.351772 0.40906,-0.840335 1.77709,-1.149864 3.05557,-0.691353 1.27848,0.458514 1.98328,1.511437 1.57421,2.351772 z"
       id="path3966-7-5-5"
       inkscape:connector-curvature="0"
       inkscape:transform-center-x="0.92702412"
       inkscape:transform-center-y="-2.4990758" />
    <path
       style="fill:#7aadd5;fill-opacity:1;stroke:none"
       d="m 155.86391,20.316133 c -0.42858,0.888712 -2.03645,1.533126 -3.59126,1.439328 -1.55484,-0.0938 -2.46784,-0.890269 -2.03926,-1.778985 0.42859,-0.888715 2.03644,-1.533132 3.59129,-1.439335 1.55481,0.0938 2.46781,0.890271 2.03923,1.778982 z"
       id="path3966-7-4-8-0"
       inkscape:connector-curvature="0"
       inkscape:transform-center-x="1.2786583"
       inkscape:transform-center-y="-2.0846605" />
    <path
       style="fill:#7aadd5;fill-opacity:1;stroke:none"
       d="m 26.580561,87.824495 c -0.48882,1.16525 -2.81283,2.09198 -5.19082,2.069912 -2.37799,-0.02207 -3.90946,-0.984579 -3.42064,-2.14983 0.48882,-1.165249 2.81283,-2.091981 5.19082,-2.069913 2.37799,0.02207 3.90946,0.984579 3.42064,2.149831 z"
       id="path3966-8"
       inkscape:connector-curvature="0"
       inkscape:transform-center-x="2.3214286"
       inkscape:transform-center-y="-2.5892857" />
    <path
       style="fill:#7aadd5;fill-opacity:1;stroke:none"
       d="m 32.911541,91.884762 c -0.01759,0.738879 -1.128476,1.415969 -2.481212,1.512324 -1.352738,0.09635 -2.435078,-0.424513 -2.417474,-1.163395 0.0176,-0.738877 1.128477,-1.415969 2.481213,-1.512324 1.352737,-0.09635 2.435078,0.424515 2.417473,1.163395 z"
       id="path3966-7-5-5-3"
       inkscape:connector-curvature="0"
       inkscape:transform-center-x="1.8923066"
       inkscape:transform-center-y="-1.4843393" />
    <path
       style="fill:#7aadd5;fill-opacity:1;stroke:none"
       d="m 76.078036,38.367631 c -0.48882,1.16525 -2.81283,2.09198 -5.19082,2.069912 -2.37799,-0.02207 -3.90946,-0.984579 -3.42064,-2.14983 0.48882,-1.165249 2.81283,-2.091981 5.19082,-2.069913 2.37799,0.02207 3.90946,0.984579 3.42064,2.149831 z"
       id="path3966-8-0"
       inkscape:connector-curvature="0"
       inkscape:transform-center-x="2.3214286"
       inkscape:transform-center-y="-2.5892857" />
    <path
       style="fill:#7aadd5;fill-opacity:1;stroke:none"
       d="m 82.555407,42.193818 c -0.01759,0.738879 -1.128476,1.415969 -2.481212,1.512324 -1.352738,0.09635 -2.435078,-0.424513 -2.417474,-1.163395 0.0176,-0.738877 1.128477,-1.415969 2.481213,-1.512324 1.352737,-0.09635 2.435078,0.424515 2.417473,1.163395 z"
       id="path3966-7-5-5-3-5"
       inkscape:connector-curvature="0"
       inkscape:transform-center-x="1.8923066"
       inkscape:transform-center-y="-1.4843393" />
    <rect
       style="fill:#ffffff;fill-opacity:1;stroke:none;filter:url(#filter4151)"
       id="rect4141"
       width="18.679802"
       height="2.8299365"
       x="-71.599136"
       y="281.10663"
       transform="matrix(0.83108253,-0.37482439,0.61777399,0.22845279,-17.012769,157.76083)"
       ry="1.2970543"
       inkscape:transform-center-x="4.2987265"
       inkscape:transform-center-y="1.9800414" />
    <rect
       style="fill:#ffffff;fill-opacity:1;stroke:none;filter:url(#filter4151-1)"
       id="rect4141-7"
       width="18.679802"
       height="2.8299365"
       x="-71.599136"
       y="281.10663"
       transform="matrix(0.83108253,-0.37482439,0.61777399,0.22845279,-11.779534,164.47096)"
       ry="1.2970543"
       inkscape:transform-center-x="4.2987269"
       inkscape:transform-center-y="1.9800349" />
    <rect
       style="fill:#ffffff;fill-opacity:1;stroke:none;filter:url(#filter4151-1-2)"
       id="rect4141-7-6"
       width="18.679802"
       height="2.8299365"
       x="-71.599136"
       y="281.10663"
       transform="matrix(0.83108253,-0.37482439,0.61777399,0.22845279,37.849238,158.36511)"
       ry="1.2970543"
       inkscape:transform-center-x="4.2987266"
       inkscape:transform-center-y="1.9800365" />
    <rect
       style="fill:#ffffff;fill-opacity:1;stroke:none;filter:url(#filter4151-1-2-2)"
       id="rect4141-7-6-9"
       width="18.679802"
       height="2.8299365"
       x="-71.599136"
       y="281.10663"
       transform="matrix(0.83108253,-0.37482439,0.61777399,0.22845279,43.643173,166.06525)"
       ry="1.2970543"
       inkscape:transform-center-x="4.2987268"
       inkscape:transform-center-y="1.9800343" />
    <path
       style="fill:#7aadd5;fill-opacity:1;stroke:none"
       d="m 259.36931,24.484231 c -0.0176,0.738879 -1.12848,1.415969 -2.48121,1.512324 -1.35274,0.09635 -2.43508,-0.424513 -2.41748,-1.163395 0.0176,-0.738877 1.12848,-1.415969 2.48122,-1.512324 1.35273,-0.09635 2.43507,0.424515 2.41747,1.163395 z"
       id="path3966-7-5-5-3-5-0"
       inkscape:connector-curvature="0"
       inkscape:transform-center-x="1.8923066"
       inkscape:transform-center-y="-1.4843393" />
    <path
       style="fill:#7aadd5;fill-opacity:1;stroke:none"
       d="m 208.6755,50.025348 c -0.36969,0.869437 -2.12736,1.560906 -3.92585,1.54444 -1.79849,-0.01647 -2.95676,-0.734632 -2.58706,-1.60407 0.3697,-0.869436 2.12737,-1.560906 3.92586,-1.54444 1.79849,0.01647 2.95674,0.734631 2.58705,1.60407 z"
       id="path3966-8-0-6-8"
       inkscape:connector-curvature="0"
       inkscape:transform-center-x="1.7557139"
       inkscape:transform-center-y="-1.9319641" />
    <path
       style="fill:#7aadd5;fill-opacity:1;stroke:none"
       d="m 234.49258,54.300223 c -0.0176,0.738879 -1.12848,1.415969 -2.48121,1.512324 -1.35274,0.09635 -2.43508,-0.424513 -2.41748,-1.163395 0.0176,-0.738877 1.12848,-1.415969 2.48122,-1.512324 1.35273,-0.09635 2.43507,0.424515 2.41747,1.163395 z"
       id="path3966-7-5-5-3-5-0-3"
       inkscape:connector-curvature="0"
       inkscape:transform-center-x="1.8923066"
       inkscape:transform-center-y="-1.4843393" />
    <path
       style="fill:#7aadd5;fill-opacity:1;stroke:none"
       d="m 221.66287,59.330704 c -0.48882,1.16525 -2.81283,2.09198 -5.19082,2.069912 -2.37799,-0.02207 -3.90946,-0.984579 -3.42064,-2.14983 0.48882,-1.165249 2.81283,-2.091981 5.19082,-2.069913 2.37799,0.02207 3.90946,0.984579 3.42064,2.149831 z"
       id="path3966-5"
       inkscape:connector-curvature="0"
       inkscape:transform-center-x="2.3214286"
       inkscape:transform-center-y="-2.5892857" />
    <path
       style="fill:#7aadd5;fill-opacity:1;stroke:none"
       d="m 105.25621,131.64766 c -1.16722,-0.4841 -2.10337,-2.80433 -2.09095,-5.18239 0.0125,-2.37805 0.96871,-3.91341 2.13593,-3.42931 1.16723,0.48407 2.10338,2.80432 2.09096,5.18236 -0.0125,2.37805 -0.96871,3.91341 -2.13594,3.42934 z"
       id="path3966-5-8"
       inkscape:connector-curvature="0"
       inkscape:transform-center-x="-2.5798487"
       inkscape:transform-center-y="-2.3319106"
       inkscape:export-filename="/home/flo/terasology/meta/GooeysQuests/gooey/path3966-7-5-8.png"
       inkscape:export-xdpi="90"
       inkscape:export-ydpi="90" />
    <path
       style="fill:#7aadd5;fill-opacity:1;stroke:none"
       d="m 110.27559,122.87021 c -0.63712,-0.43896 -0.81554,-1.81671 -0.39854,-3.07727 0.41702,-1.26055 1.27156,-1.92658 1.90869,-1.48761 0.6371,0.43897 0.81554,1.81671 0.39853,3.07727 -0.41702,1.26056 -1.27156,1.92659 -1.90868,1.48761 z"
       id="path3966-7-58"
       inkscape:connector-curvature="0"
       inkscape:transform-center-x="-1.9937665"
       inkscape:transform-center-y="-0.83579965"
       inkscape:export-filename="/home/flo/terasology/meta/GooeysQuests/gooey/path3966-7-5-8.png"
       inkscape:export-xdpi="90"
       inkscape:export-ydpi="90" />
    <path
       style="fill:#7aadd5;fill-opacity:1;stroke:none"
       d="m 168.00151,193.88294 c -0.73728,-0.0517 -1.36232,-1.1927 -1.39606,-2.54843 -0.0338,-1.35575 0.53656,-2.41287 1.27384,-2.36115 0.73728,0.0517 1.36232,1.1927 1.39606,2.54843 0.0338,1.35575 -0.53656,2.41287 -1.27384,2.36115 z"
       id="path3966-7-5-5-3-8"
       inkscape:connector-curvature="0"
       inkscape:transform-center-x="-1.570185"
       inkscape:transform-center-y="-1.8217036"
       inkscape:export-filename="/home/flo/terasology/meta/GooeysQuests/gooey/path3966-7-5-8.png"
       inkscape:export-xdpi="90"
       inkscape:export-ydpi="90" />
    <path
       style="fill:#7aadd5;fill-opacity:1;stroke:none"
       d="m 173.04233,186.831 c -0.82053,-0.44745 -1.06653,-1.82832 -0.54944,-3.08425 0.5171,-1.25593 1.60146,-1.91133 2.422,-1.46387 0.82054,0.44745 1.06653,1.82832 0.54944,3.08425 -0.5171,1.25593 -1.60146,1.91133 -2.422,1.46387 z"
       id="path3966-7-5-8"
       inkscape:connector-curvature="0"
       inkscape:transform-center-x="-2.5392377"
       inkscape:transform-center-y="-0.81057091"
       inkscape:export-xdpi="90"
       inkscape:export-ydpi="90" />
    <path
       style="fill:#7aadd5;fill-opacity:1;stroke:none"
       d="m 125.98378,174.46111 c -0.83212,-0.0915 -1.50548,-1.54554 -1.50397,-3.24778 0.002,-1.70224 0.6773,-3.00801 1.50943,-2.91653 0.83211,0.0914 1.50546,1.54555 1.50397,3.24777 -0.002,1.70223 -0.67731,3.00802 -1.50943,2.91654 z"
       id="path3966-7-5-52"
       inkscape:connector-curvature="0"
       inkscape:transform-center-x="-1.8287041"
       inkscape:transform-center-y="-2.2290342"
       inkscape:export-filename="/home/flo/terasology/meta/GooeysQuests/gooey/path3966-7-5-8.png"
       inkscape:export-xdpi="90"
       inkscape:export-ydpi="90" />
    <path
       style="fill:#7aadd5;fill-opacity:1;stroke:none"
       d="m 119.0403,180.56291 c -0.61195,-0.57238 -0.8021,-2.44728 -0.4247,-4.18768 0.3774,-1.74042 1.17944,-2.68727 1.79138,-2.11487 0.61195,0.57237 0.8021,2.44728 0.4247,4.18768 -0.3774,1.7404 -1.17943,2.68727 -1.79138,2.11487 z"
       id="path3966-7-5-52-1"
       inkscape:connector-curvature="0"
       inkscape:transform-center-x="-1.8819775"
       inkscape:transform-center-y="-1.2278783"
       inkscape:export-filename="/home/flo/terasology/meta/GooeysQuests/gooey/path3966-7-5-8.png"
       inkscape:export-xdpi="90"
       inkscape:export-ydpi="90" />
    <path
       style="fill:#7aadd5;fill-opacity:1;stroke:none"
       d="m 111.18488,133.28219 c -1.12037,-0.58893 -1.45925,-2.40088 -0.75695,-4.04707 0.70229,-1.6462 2.17985,-2.50329 3.30019,-1.91434 1.12035,0.58893 1.45924,2.40086 0.75695,4.04706 -0.70231,1.6462 -2.17984,2.50328 -3.30019,1.91435 z"
       id="path3966-7-1"
       inkscape:connector-curvature="0"
       inkscape:transform-center-x="-3.4617002"
       inkscape:transform-center-y="-1.0570972"
       inkscape:export-filename="/home/flo/terasology/meta/GooeysQuests/gooey/path3966-7-5-8.png"
       inkscape:export-xdpi="90"
       inkscape:export-ydpi="90" />
    <path
       style="fill:#7aadd5;fill-opacity:1;stroke:none"
       d="m 211.25414,70.357166 c -0.0593,0.722415 -1.31666,1.346342 -2.8085,1.393553 -1.49184,0.04722 -2.65316,-0.500131 -2.5939,-1.222552 0.0592,-0.722415 1.31667,-1.346346 2.80852,-1.39355 1.49182,-0.04722 2.65314,0.500132 2.59388,1.222549 z"
       id="path3966-8-0-6-8-2"
       inkscape:connector-curvature="0"
       inkscape:transform-center-x="1.9993972"
       inkscape:transform-center-y="-1.5183369" />
    <path
       style="fill:#7aadd5;fill-opacity:1;stroke:none"
       d="m 231.1096,70.003521 c 0.231,0.533049 -0.4322,0.882167 -1.48136,0.77975 -1.04915,-0.102412 -2.08696,-0.617552 -2.31798,-1.150609 -0.23108,-0.533058 0.43219,-0.88217 1.48136,-0.779745 1.04915,0.10241 2.08694,0.61755 2.31798,1.150604 z"
       id="path3966-8-0-6-8-2-9"
       inkscape:connector-curvature="0"
       inkscape:transform-center-x="2.0047214"
       inkscape:transform-center-y="-1.316261" />
    <path
       style="fill:#7aadd5;fill-opacity:1;stroke:none"
       d="m 168.54396,124.0799 c -0.59795,-0.0384 -1.10488,-0.88618 -1.13224,-1.89349 -0.0274,-1.00732 0.43517,-1.79277 1.03312,-1.75434 0.59795,0.0384 1.10488,0.88618 1.13224,1.89349 0.0274,1.00732 -0.43516,1.79277 -1.03312,1.75434 z"
       id="path3966-7-5-5-3-8-3"
       inkscape:connector-curvature="0"
       inkscape:transform-center-x="-1.273462"
       inkscape:transform-center-y="-1.3535286"
       inkscape:export-filename="/home/flo/terasology/meta/GooeysQuests/gooey/path3966-7-5-8.png"
       inkscape:export-xdpi="90"
       inkscape:export-ydpi="90" />
    <path
       style="fill:#7aadd5;fill-opacity:1;stroke:none"
       d="m 172.8649,119.49241 c -0.72094,-0.61058 -0.86088,-2.49418 -0.31254,-4.20712 0.54837,-1.71292 1.5773,-2.60657 2.29825,-1.99599 0.72096,0.61059 0.86089,2.4942 0.31255,4.20714 -0.54836,1.71294 -1.57729,2.60657 -2.29826,1.99597 z"
       id="path3966-8-0-6"
       inkscape:connector-curvature="0"
       inkscape:transform-center-x="-2.3652472"
       inkscape:transform-center-y="-1.1048281" />
  </g>
</svg>
